<mxfile host="app.diagrams.net" agent="Mozilla/5.0 (Windows NT 10.0; Win64; x64) AppleWebKit/537.36 (KHTML, like Gecko) Chrome/131.0.0.0 Safari/537.36" version="25.0.3">
  <diagram name="Page-1" id="OX7Hl-lMASNQTOw_aw64">
    <mxGraphModel dx="2524" dy="746" grid="1" gridSize="10" guides="1" tooltips="1" connect="1" arrows="1" fold="1" page="1" pageScale="1" pageWidth="850" pageHeight="1100" math="0" shadow="0">
      <root>
        <mxCell id="0" />
        <mxCell id="1" parent="0" />
        <mxCell id="P121hET3QLXZ2CQ4-4Ij-2" value="" style="rounded=0;whiteSpace=wrap;html=1;" vertex="1" parent="1">
          <mxGeometry x="-160" y="90" width="600" height="320" as="geometry" />
        </mxCell>
        <mxCell id="P121hET3QLXZ2CQ4-4Ij-9" style="edgeStyle=orthogonalEdgeStyle;rounded=0;orthogonalLoop=1;jettySize=auto;html=1;exitX=1;exitY=0.5;exitDx=0;exitDy=0;" edge="1" parent="1" source="P121hET3QLXZ2CQ4-4Ij-4" target="P121hET3QLXZ2CQ4-4Ij-5">
          <mxGeometry relative="1" as="geometry" />
        </mxCell>
        <mxCell id="P121hET3QLXZ2CQ4-4Ij-4" value="Input Dataset with AI and AO properties" style="rounded=1;whiteSpace=wrap;html=1;" vertex="1" parent="1">
          <mxGeometry x="-140" y="220" width="120" height="60" as="geometry" />
        </mxCell>
        <mxCell id="P121hET3QLXZ2CQ4-4Ij-17" style="edgeStyle=orthogonalEdgeStyle;rounded=0;orthogonalLoop=1;jettySize=auto;html=1;exitX=1;exitY=0.5;exitDx=0;exitDy=0;entryX=0;entryY=0.5;entryDx=0;entryDy=0;" edge="1" parent="1" source="P121hET3QLXZ2CQ4-4Ij-5" target="P121hET3QLXZ2CQ4-4Ij-8">
          <mxGeometry relative="1" as="geometry" />
        </mxCell>
        <mxCell id="P121hET3QLXZ2CQ4-4Ij-5" value="" style="rounded=1;whiteSpace=wrap;html=1;" vertex="1" parent="1">
          <mxGeometry x="50" y="140" width="160" height="220" as="geometry" />
        </mxCell>
        <mxCell id="P121hET3QLXZ2CQ4-4Ij-13" style="edgeStyle=orthogonalEdgeStyle;rounded=0;orthogonalLoop=1;jettySize=auto;html=1;exitX=0.25;exitY=1;exitDx=0;exitDy=0;entryX=0.25;entryY=0;entryDx=0;entryDy=0;" edge="1" parent="1" source="P121hET3QLXZ2CQ4-4Ij-6" target="P121hET3QLXZ2CQ4-4Ij-7">
          <mxGeometry relative="1" as="geometry" />
        </mxCell>
        <mxCell id="P121hET3QLXZ2CQ4-4Ij-6" value="Generator" style="rounded=1;whiteSpace=wrap;html=1;" vertex="1" parent="1">
          <mxGeometry x="70" y="160" width="120" height="60" as="geometry" />
        </mxCell>
        <mxCell id="P121hET3QLXZ2CQ4-4Ij-12" style="edgeStyle=orthogonalEdgeStyle;rounded=0;orthogonalLoop=1;jettySize=auto;html=1;exitX=0.75;exitY=0;exitDx=0;exitDy=0;entryX=0.75;entryY=1;entryDx=0;entryDy=0;" edge="1" parent="1" source="P121hET3QLXZ2CQ4-4Ij-7" target="P121hET3QLXZ2CQ4-4Ij-6">
          <mxGeometry relative="1" as="geometry" />
        </mxCell>
        <mxCell id="P121hET3QLXZ2CQ4-4Ij-7" value="Discriminor" style="rounded=1;whiteSpace=wrap;html=1;" vertex="1" parent="1">
          <mxGeometry x="70" y="270" width="120" height="60" as="geometry" />
        </mxCell>
        <mxCell id="P121hET3QLXZ2CQ4-4Ij-8" value="Enhanced Output Dataset" style="rounded=1;whiteSpace=wrap;html=1;" vertex="1" parent="1">
          <mxGeometry x="300" y="220" width="120" height="60" as="geometry" />
        </mxCell>
      </root>
    </mxGraphModel>
  </diagram>
</mxfile>
